<?xml version="1.0" standalone="no"?>
<!DOCTYPE svg PUBLIC "-//W3C//DTD SVG 20010904//EN"
 "http://www.w3.org/TR/2001/REC-SVG-20010904/DTD/svg10.dtd">
<svg version="1.0" xmlns="http://www.w3.org/2000/svg"
 width="256.000000pt" height="256.000000pt" viewBox="0 0 256.000000 256.000000"
 preserveAspectRatio="xMidYMid meet">
<metadata>
Created by potrace 1.11, written by Peter Selinger 2001-2013
</metadata>
<g transform="translate(0.000000,256.000000) scale(0.100000,-0.100000)"
fill="#000000" stroke="none">
<path d="M0 1280 l0 -1280 1280 0 1280 0 0 1280 0 1280 -1280 0 -1280 0 0
-1280z m2224 1150 c48 -43 72 -107 56 -154 -6 -19 -87 -191 -179 -383 -93
-191 -268 -564 -391 -827 -251 -543 -238 -489 -143 -576 29 -26 105 -81 169
-121 141 -90 164 -114 164 -176 l0 -45 -32 6 c-23 4 -51 26 -93 72 -41 45
-103 93 -195 153 l-135 88 -32 -49 c-27 -43 -46 -95 -117 -323 -10 -32 -18
-41 -39 -43 -21 -3 -29 2 -37 23 -26 69 -3 160 85 336 30 60 55 115 55 122 0
25 -165 180 -360 337 -387 312 -510 438 -643 659 -132 218 -172 440 -111 619
70 205 106 252 194 252 50 0 579 -207 705 -275 45 -25 93 -45 106 -45 14 0 58
26 104 60 84 63 228 141 465 252 l145 67 112 1 c111 0 113 0 147 -30z"/>
<path d="M1880 2300 c-41 -11 -104 -35 -140 -53 -69 -36 -389 -238 -389 -247
0 -3 25 -23 55 -44 30 -22 77 -63 104 -92 42 -44 50 -59 50 -91 0 -21 -4 -45
-10 -53 -10 -16 -4 -21 -140 102 -99 90 -149 128 -166 128 -7 0 -41 -24 -75
-54 -85 -74 -129 -82 -129 -22 0 27 10 42 62 89 34 31 60 59 57 61 -2 2 -78
39 -169 81 -259 121 -498 193 -553 168 -30 -14 -81 -90 -108 -162 -30 -80 -36
-214 -15 -321 35 -183 139 -338 346 -522 311 -275 602 -519 687 -576 l62 -42
44 83 c87 159 136 265 267 572 142 333 209 473 287 602 28 44 56 103 63 130 7
26 35 97 62 156 27 60 47 112 43 115 -3 4 -54 8 -113 9 -82 2 -124 -2 -182
-17z"/>
</g>
</svg>
